<svg width="97" height="550" viewBox="0 0 97 550" fill="none" xmlns="http://www.w3.org/2000/svg">
<path fill-rule="evenodd" clip-rule="evenodd" d="M96.2999 544.047L-141.461 2.54252C-142.139 0.997891 -143.669 -1.05052e-05 -145.359 -1.05791e-05L-292.979 -1.70318e-05C-294.669 -1.71057e-05 -296.199 0.997884 -296.877 2.54251L-534.638 544.047C-535.87 546.854 -533.81 550 -530.74 550L-386.91 550C-385.22 550 -383.69 549.002 -383.012 547.457L-223.066 183.178C-221.578 179.787 -216.759 179.787 -215.271 183.178L-55.3253 547.457C-54.6473 549.002 -53.1177 550 -51.4279 550L92.4023 550C95.4724 550 97.5322 546.854 96.2999 544.047Z" fill="black"/>
<path fill-rule="evenodd" clip-rule="evenodd" d="M96.2999 544.047L-141.461 2.54252C-142.139 0.997891 -143.669 -1.05052e-05 -145.359 -1.05791e-05L-292.979 -1.70318e-05C-294.669 -1.71057e-05 -296.199 0.997884 -296.877 2.54251L-534.638 544.047C-535.87 546.854 -533.81 550 -530.74 550L-386.91 550C-385.22 550 -383.69 549.002 -383.012 547.457L-223.066 183.178C-221.578 179.787 -216.759 179.787 -215.271 183.178L-55.3253 547.457C-54.6473 549.002 -53.1177 550 -51.4279 550L92.4023 550C95.4724 550 97.5322 546.854 96.2999 544.047Z" fill="#49AF55"/>
</svg>
